<svg xmlns="http://www.w3.org/2000/svg" viewBox="0 0 300.49 297.42"><defs><style>.a{fill:#0796de;}.b{fill:none;stroke:#20558d;stroke-miterlimit:10;stroke-width:14px;}.c{opacity:0.25;}.d{fill:#215e95;}.e{fill:#eaeaea;}</style></defs><rect class="a" x="17.2" y="15.66" width="266.09" height="266.09" rx="8.03"/><rect class="b" x="17.2" y="15.66" width="266.09" height="266.09" rx="12.11"/><g class="c"><rect class="d" x="36.95" y="33.3" width="19.95" height="230.83" rx="1.56"/><rect class="d" x="71.12" y="33.3" width="19.95" height="230.83" rx="1.56"/><rect class="d" x="105.14" y="33.3" width="19.95" height="230.83" rx="1.56"/><rect class="d" x="140.34" y="33.3" width="19.95" height="230.83" rx="1.56"/><rect class="d" x="174.37" y="33.3" width="19.95" height="230.83" rx="1.56"/><rect class="d" x="209.56" y="33.3" width="19.95" height="230.83" rx="1.56"/><rect class="d" x="243.59" y="33.3" width="19.95" height="230.83" rx="1.56"/></g><path class="e" d="M59.58,140.11c0,.1-.36.31-.78.52s-.77.05-.77-.21.36-.52.77-.52S59.58,140,59.58,140.11Z"/><path class="e" d="M59.58,138.56c0,.1-.36.36-.83.51s-.62.11-.46-.2C58.6,138.35,59.58,138.14,59.58,138.56Z"/><path class="e" d="M64.75,144.56c0,.26-.77.46-1.65.46L61.39,145l1.55-.41c.88-.21,1.61-.42,1.71-.47S64.75,144.25,64.75,144.56Z"/><ellipse class="e" cx="64.75" cy="138.61" rx="0.52" ry="0.78"/><path class="e" d="M68.89,130.07a.56.56,0,0,1-.57.52c-.25,0-.36-.26-.2-.52s.41-.52.57-.52S68.89,129.76,68.89,130.07Z"/><path class="e" d="M71.53,143a.57.57,0,0,1-.57-.52c0-.31.11-.52.21-.52s.41.21.57.52S71.79,143,71.53,143Z"/><path class="e" d="M73.91,138.66a1,1,0,0,1-1,.05c-.41-.15-.26-.31.31-.31S74.12,138.5,73.91,138.66Z"/><path class="e" d="M77.17,137.31a.56.56,0,0,1-.57.52c-.25,0-.36-.26-.2-.52a.84.84,0,0,1,.57-.51C77.07,136.8,77.17,137,77.17,137.31Z"/><path class="e" d="M77.43,135.76a1.41,1.41,0,0,1-1.19.47c-.52,0-.62-.16-.26-.26a.78.78,0,0,0,.31-1c-.15-.41,0-.72.37-.72s.41.21.26.52-.06.51.25.51S77.59,135.45,77.43,135.76Z"/><path class="e" d="M79.24,121c0,.42-.46.62-1.29.57s-1.29,0-1.29.31-.26.36-.57.16-.16-.62.62-1C78.31,120.08,79.24,120.08,79.24,121Z"/><ellipse class="e" cx="80.02" cy="138.35" rx="0.78" ry="0.52"/><path class="e" d="M80.54,137.21c-.16.16-.57,0-.93-.36-.47-.52-.42-.57.31-.26C80.43,136.74,80.69,137.05,80.54,137.21Z"/><path class="e" d="M80.18,135.3a3.15,3.15,0,0,1-.94-.88c0-.42.42-.16,1.09.67S81,136,80.18,135.3Z"/><path class="e" d="M82.5,93.07c-.15.46-.41.72-.51.57s-.11-.47.1-.78C82.56,92,82.87,92.19,82.5,93.07Z"/><path class="e" d="M82.25,136.85a3,3,0,0,1-.94-.88c0-.42.42-.16,1.09.67S83,137.52,82.25,136.85Z"/><path class="e" d="M85.45,132.35c0,.56-1,.77-1.29.31-.16-.26,0-.52.47-.52S85.45,132.24,85.45,132.35Z"/><path class="e" d="M84.42,118.94a2.72,2.72,0,0,1-2,.73c-1.24,0-1.19,0,.47-.68,1-.41,1.91-.72,2-.77S84.78,118.53,84.42,118.94Z"/><circle class="e" cx="86.49" cy="119.72" r="0.52"/><path class="e" d="M87.37,121.58a1,1,0,0,1-1,0c-.41-.15-.25-.31.32-.31S87.58,121.43,87.37,121.58Z"/><path class="e" d="M91.15,81.11c0,.16-.21.42-.52.57s-.52.06-.52-.2a.57.57,0,0,1,.52-.57C90.94,80.91,91.15,81,91.15,81.11Z"/><path class="e" d="M91,71.39a1.07,1.07,0,0,1-1,0c-.42-.16-.26-.31.31-.31S91.2,71.23,91,71.39Z"/><path class="e" d="M91.92,89.19c-.46,0-.67-.26-.52-.52s.42-.52.52-.52.36.21.52.52S92.39,89.19,91.92,89.19Z"/><path class="e" d="M96.84,87.79c0,.26-.31.26-.62,0a3,3,0,0,0-1.14-.41c-.26,0-.52-.42-.62-.88-.11-.88,0-.88,1.14,0C96.27,87,96.84,87.58,96.84,87.79Z"/><path class="e" d="M98.91,59.43c0,.42-.11.78-.21.78s-.31-.36-.52-.78-.05-.77.21-.77S98.91,59,98.91,59.43Z"/><path class="e" d="M101.5,52.24c0,.41-1,.67-1.25.31s.06-.47.47-.47A1.42,1.42,0,0,1,101.5,52.24Z"/><path class="e" d="M104.08,244.69a5.27,5.27,0,0,1-1.55,1c-2,1-2.07.57-.1-.47C104,244.38,104.08,244.33,104.08,244.69Z"/><path class="e" d="M123.18,218c-.78,0-6.16-3.72-6.16-4.24,0-.26-.21-.31-.52-.16s-.51.05-.51-.2a.58.58,0,0,0-.57-.57c-1.09,0-5.39-3.73-6.06-5.33-.41-.94-.83-1.4-1-1-.16.52-.42.52-1,0-1.76-1.4-5.84-5.85-5.84-6.31,0-.31-.68-.83-1.56-1.19-2.27-1-4.19-3.83-8.64-12.63C88,179.8,84,169,84,166.81c0-.41-.2-3.47-.56-6.73-.83-9-1-11.8-.63-12.16.16-.21.37.21.47.88a4.11,4.11,0,0,0,1.86,2.28c1.56,1,1.66,1,1.61.21a4.29,4.29,0,0,0-.83-1.87c-.62-.83-.62-.88.15-.57.47.16,1,.06,1.14-.31s.37-.46.68-.1a14,14,0,0,0,1.7,1.55l1.3,1-1.24-1.45-1.3-1.4,2.28.26a10.33,10.33,0,0,1,2.79.67,9.35,9.35,0,0,0,3.31.16c1.45-.05,2.7,0,2.7.31s.36,3.31.77,6.88c1.86,15.68,6.26,25.36,16,34.93a74.18,74.18,0,0,0,9.21,7.66c2.54,1.71,4.66,3.26,4.82,3.47C130.58,203.09,123.75,218,123.18,218Z"/><path class="e" d="M148.74,138.35l-3.41,1.5a18.78,18.78,0,0,0-9.16,8.59c-1.09,2.22-1.24,3.36-1.3,7.87,0,2.89-.2,5.48-.51,5.79-.78.73-6.78,3.68-7.51,3.68-.36,0-3.72-3-7.5-6.68-6.73-6.57-13-11.33-18.11-13.56-2.38-1-3.21-1.86-1.3-1.24.57.21,1,.1,1-.21s-1-.72-2.12-.88l-2.18-.36,1.5-.62a3.79,3.79,0,0,1,2.23-.36c.52.2.62,0,.31-.42s-1.35-.57-3.78-.36c-2,.16-3,0-2.64-.21s.31-.46-.72-.46a3.36,3.36,0,0,0-2.18.72c-.62.62-.41.78,1.56,1.09,1.29.15,2.33.52,2.33.83,0,.62-.37.57-3-.31a6.67,6.67,0,0,0-3-.47c-1.29.52-.88-.21.68-1,1.34-.78,1.29-.78-2.07-.83-2.49,0-3.52.21-3.52.62s-1.09.72-3.42.83c-1.91,0-3.26-.11-3.1-.36.41-.63-.62-1-2.28-.83-.83,0-1.29.41-1.24.88.1,1-1.45.88-1.81-.16-.26-.57-1.45-.83-5-.93a23.88,23.88,0,0,1-4.92-.41,44.7,44.7,0,0,1,6.37-.06,35,35,0,0,0,6.57-.15c0-.16.62-.26,1.45-.16a9.29,9.29,0,0,0,3.11-.31c1.39-.36,1.81-.26,2.32.57.31.52.78,1,1,1s.26-.26.1-.52.83-.52,2.64-.52c2.49,0,2.85-.1,2.17-.67a3.64,3.64,0,0,1-1.08-1.45c-.21-.67-.05-.78.72-.62.52.15,1,0,1-.31,0-.62-2-.78-3.42-.21-.83.31-.83.36.1.78.73.31.57.36-.57.15-1.44-.26-1.5-.2-.56.52.56.41.77.78.46.78-.67,0-1.81-1.3-1.4-1.66.16-.16-.51-.93-1.5-1.66s-1.76-1.65-1.76-2.07.21-.67.47-.51a.5.5,0,0,1,.15.72c-.31.52,1.51,1.66,2,1.29.16-.15.21-.1.05.11-.31.41.73,1.71,1.4,1.71.31,0,.26-.37-.1-.78s-.47-.78-.26-.78,0-.41-.31-.88c-.52-.62-.21-.51.93.26,1.71,1.24,4.3,1.56,4.3.52a4.92,4.92,0,0,0-1.14-1.91l-1.19-1.35,1.19,1c1.86,1.61,1.29.16-.73-1.81-1.39-1.34-1.81-1.55-1.65-.77,0,.51-.16,1.08-.52,1.19s-.52-.06-.31-.57.1-.83-.21-.83-.67-.42-.88-.93c-.26-.73-.2-.78.31-.26,1.14,1.14,1.71.72.68-.52-.52-.62.25,0,1.75,1.45,2.49,2.38,3.78,2.85,1.82.67-.83-.93-.83-.93,0-.62,1.6.62.88-.57-2.23-3.67-1.71-1.66-3.26-2.85-3.47-2.64s.31,1,1.14,1.81a25.55,25.55,0,0,1,2.59,2.69c.57.67-.16.16-1.55-1.14-2.38-2.17-2.75-2.33-5.07-2.22-1.45.1-2.33,0-2.18-.37a1.91,1.91,0,0,1,1.61-.15,5,5,0,0,0,2.12,0c.77-.31.77-.41.15-.83s-.46-.52.52-.52,2.17.88,4.14,2.85c1.5,1.55,2.9,2.69,3,2.54s-1.13-1.66-2.84-3.42-2.49-2.79-1.81-2.33a3.07,3.07,0,0,0,2.07.52c.62-.21.67-.16.1.26s-.36.83.83,2.17l1.5,1.66v-6.32l0-6.26-1.45,1.4c-1.09,1-1.34,1.55-.88,1.81s.47.57.26.83c-.83.78-1.34-1.09-.57-2,1-1.08.93-1.55-.15-1.14-.57.21-.31-.36.77-1.44,2.12-2.33,2.18-3.21,0-1.2l-1.65,1.51L87,112l1.76-2.33-1.92,1.76c-1,1-1.91,1.65-1.91,1.5a4.66,4.66,0,0,0-.37-1.24c-.25-.73-.15-.83.68-.57s.77.2-.21-.52-1.35-2-1.92-5.28c-1.55-9-1.5-13,.21-10,.36.73.78.83,1.92.42A3,3,0,0,0,87,94.1c.15-.57.62-1,1-1s.78-.57.88-1.5c.1-1.81.67-2.49.67-.83,0,1.14.06,1.14,1,.31,1.19-1.09,2.12-.72,2.12.78s1.4,2.79,2.33,2,1-2-.11-2.17-1.45-3.52-.36-3.52a.57.57,0,0,1,.62.62c-.1.37.26.62.78.62.67,0,.88.31.88,1.82v1.86l.77-1.45a2.44,2.44,0,0,0,.26-2.48c-.62-1.09.11-1.35.88-.37a11.19,11.19,0,0,1,1.19,2.75c1,3.1,5,10.92,7.56,14.8,4,6,11.07,11.79,18.52,15.21a94.64,94.64,0,0,0,17,5.38c4.55,1,5.07,1.61,5.43,6.88Z"/><path class="e" d="M193.61,249.09c-.31.57-.67,1-.83,1s0-.47.31-1,.67-1,.83-1S193.92,248.52,193.61,249.09Z"/><path class="e" d="M202.92,52.91a1.06,1.06,0,0,1-.41.78c-.26.15-.47,0-.47-.47s.21-.77.47-.77A.44.44,0,0,1,202.92,52.91Z"/><path class="e" d="M202.3,245.83a.9.9,0,0,0-1.14.47c-.15.46-1,.72-2.22.72-4.09,0-5.95.62-6.83,2.12-.47.83-1,1.5-1.24,1.5s-.26-.26-.11-.51-.26-.52-1-.52c-.93,0-1.35-.26-1.35-.93-.05-.83-.05-.83-.72,0a3.26,3.26,0,0,1-2.69.93c-1.3,0-1.76.15-1.35.46a3.71,3.71,0,0,0,2,.26c.67-.05,1.24.11,1.24.36,0,1-5.43.47-8-.82l-2.59-1.35,5.28.16c2.9.1,5,0,4.66-.21a29.12,29.12,0,0,0-6.11-.41h-5.43l-3.62-2.13A100.07,100.07,0,0,1,156.4,234.5c-2.12-2-4.24-3.52-4.71-3.52a1.16,1.16,0,0,0-.41.16,39.78,39.78,0,0,0-5,4.08c-6.47,6.06-10.46,9.16-15.68,12.11-7.09,4-9.58,5-13.25,4.87-5.38-.16-5.07,0-3.88-1.87,1.45-2.38,1.19-2.84-.31-.57a8,8,0,0,1-1.61,1.92c-.51,0,2.18-4.3,4.09-6.47,2.18-2.54,2.54-3.62.57-1.76a52.84,52.84,0,0,0-5.12,6.57,7.39,7.39,0,0,1-1.66-.21l-1.6-.31.88-1.5c.46-.82,1-1.5,1.24-1.5s.36-.31.36-.67-.77.26-1.7,1.29L106.88,249l.15-1.87.21-1.91-.83,1.55-.77,1.55.25-2.22c.21-1.45.11-2.12-.25-1.92s-.52.21-.52.11a18.74,18.74,0,0,1,3.52-2.33,55.38,55.38,0,0,0,21.89-24.06c5.53-11.65,6-23.14,1.5-38.76-2.23-7.66-2.23-7.71,2-10.77a20.46,20.46,0,0,1,4.09-2.58,5.45,5.45,0,0,1,2.12,1.29,20,20,0,0,0,9.78,4.19c.43.05.87.07,1.3.08,3.53.08,7-1.06,10.71-3.55,1.81-1.19,3.52-2,3.93-1.81a33.59,33.59,0,0,1,3.88,2.38c2.23,1.5,3.11,2.43,3.11,3.26a55.75,55.75,0,0,1-1.55,6.57c-4.76,16.67-4.2,27.79,2.12,40.58A51.68,51.68,0,0,0,181,230.1c1,1.09,1.61,2.17,1.45,2.43s.05.36.47.21c.83-.31,1,.2.88,1.86-.11.62,0,.62.36.1s1.45.06,4.81,2.64a94.16,94.16,0,0,0,9.27,6.06C201,244.85,202.77,245.93,202.3,245.83Z"/><path class="e" d="M203.7,46.29c-.36.52-1.81,0-1.81-.62s.15-.57,1.24-.16C203.6,45.67,203.85,46,203.7,46.29Z"/><path class="e" d="M207.48,66.78a1.15,1.15,0,0,0-.94,1,.75.75,0,0,1-.77.73c-.57,0-.78-.52-.73-2,.06-1,.21-1.45.31-.83.16.78.57,1,1.61,1C207.74,66.57,207.94,66.68,207.48,66.78Z"/><path class="e" d="M208.1,64.92c0,.31-.21.36-.52.2a1.18,1.18,0,0,1-.52-.82c0-.31.26-.37.52-.21A1.05,1.05,0,0,1,208.1,64.92Z"/><path class="e" d="M208,75.06a5.5,5.5,0,0,1-1.81,0c-.51-.16-.1-.26.88-.26S208.46,74.9,208,75.06Z"/><path class="e" d="M205.82,59.74c-1.55.11-1.55.11-.15.31.82.16,1.39.57,1.39,1s-.36.72-1.19.57c-1-.21-1.19,0-1,1.08,0,.73-.21.16-.62-1.24-.78-2.64-.68-4.19.2-3.62a8.86,8.86,0,0,0,2.33.36c1.5,0,1.76.21,1.3.78A3.57,3.57,0,0,1,205.82,59.74Z"/><path class="e" d="M207.74,71.59c-1.25,0-2.23-.2-2.23-.41,0-.62,2.59-.67,3.52-.1C209.7,71.44,209.39,71.54,207.74,71.59Z"/><path class="e" d="M209.39,82.62l-1.65.2c-1.3.16-1.71.47-1.71,1.24a.9.9,0,0,1-.83,1c-.62,0-.78-.31-.52-1.19a10.29,10.29,0,0,0,.31-2.07c0-.47.26-.88.52-.88s.52.36.52.77.57.83,1.71.88Z"/><path class="e" d="M209.13,79.87c-.31,0-.41-.26-.2-.57s0-.41-.78,0c-.57.37-1.09.47-1.09.31s-.46,0-1,.26c-.88.47-1,.42-1-.41,0-1.35.16-1.4,2.43-1.35,1.4.06,2,.31,2.13.93C209.65,79.51,209.44,79.87,209.13,79.87Z"/><path class="e" d="M210.48,83.7c-.93-.36-1.09-.72-.36-.72a1,1,0,0,1,.82.52C211.1,83.81,210.89,83.86,210.48,83.7Z"/><path class="e" d="M212.5,58.66a1.14,1.14,0,0,1-.83.51.51.51,0,0,1-.47-.51c0-.31.36-.52.83-.52S212.65,58.35,212.5,58.66Z"/><path class="e" d="M217.1,102.9c-.41,1.09-1.09,1-1.76-.26s-.26-2.07.93-2c.78.06.78.11,0,.31-1.24.31-1.19,1.19.11,1.19C217.05,102.12,217.31,102.38,217.1,102.9Z"/><path class="e" d="M211.05,173.85a1.09,1.09,0,0,1-1,.05c-.41-.16-.25-.31.31-.31S211.25,173.69,211.05,173.85Z"/><path class="e" d="M211.62,177.94c0,.77-.31,1.29-.73,1.29-.77,0-.88-.52-.41-1.76S211.62,176.49,211.62,177.94Z"/><path class="e" d="M210,181.66c-2.59-.72-2.84-1.55-.31-1,.93.15,1.5.05,1.5-.31s.16-.57.31-.57.16.36,0,.77.11,1,.88,1.3C214.05,182.49,212.91,182.39,210,181.66Z"/><path class="e" d="M216.89,172.5c0,.26-.88.47-1.91.47-2-.05-2-.05-.41-.47C216.79,171.93,216.89,171.93,216.89,172.5Z"/><path class="e" d="M219.48,158.79c0,1-.2,1.81-.41,1.81s-.31-.83-.21-1.81a4.3,4.3,0,0,1,.42-1.81A4.55,4.55,0,0,1,219.48,158.79Z"/><path class="e" d="M220,151.29c0,.25-.67.51-1.55.51q-1.56,0-1.56.78c0,.41.47.78,1,.78s1,.2,1,.51a.51.51,0,0,1-.46.52c-.26,0-.73.73-1,1.55s-.31,1.45-.05,1.3.52-.11.52.2a1.05,1.05,0,0,1-.52.83c-.83.52-.62,3.73.26,4.09.41.16.78,0,.78-.31s.1-.47.26-.31c.41.41-.78,7.14-1.3,7.14-.2,0-.26.57-.1,1.29.26,1.35.1,1.4-2.74,1.4s-2.9,0-2.23-1.14c.83-1.29,1.76-1.34,2.43-.15.31.51.57.67.57.31a1.42,1.42,0,0,0-.57-1,1,1,0,0,1-.31-1.19c.31-1.24-.93-2.17-3.31-2.48-1.5-.21-2-.1-2.07.41a20.26,20.26,0,0,1-.21,2.13c-.15,1.34-.05,1.45,1.66,1.45h1.86l-1.19,1c-.88.72-1,1.09-.46,1.24,2.12.67,2.22.73,1.19.78a2.37,2.37,0,0,1-1.76-.73c-.88-1.08-1.76-1-1.35.11.21.51-.36.2-1.24-.73a4.68,4.68,0,0,1-1.55-3.36c0-1.61-.11-1.71-2-1.76-1,0-1.6.05-1.24.15s.62.47.62.73a3.85,3.85,0,0,0,1,1.6c.52.62.88,1.25.78,1.45s.26.83.83,1.35a8.19,8.19,0,0,1,1.55,1.86c.42.73.31.83-.41.57s-.88-.26-.16.62.73.93-.41.31a3.54,3.54,0,0,1-1.5-1.4c-.57-1.44-1-.67-1,1.87v2.58h2c1.45,0,2,.21,2,.78a.86.86,0,0,1-.88.78c-.73,0-.93.41-.88,1.7.1,2.59.15,3.06.62,2.75.26-.16.41.26.41.88s.21,1.14.47,1.19c1.34.2,2.84.88,2.84,1.29,0,.62-.87.57-1.29-.05-.57-.93-1.81-.57-2.33.62-.26.67-.46.88-.46.57-.06-.47-.42-.52-1.4-.16a2.33,2.33,0,0,1-1.81.21c-.57-.36-.57.36,0,1.24.26.47,1.19.68,2.64.57s2.33.05,2.43.42-.52.67-1.71.77c-1.65.16-2,.37-2.12,1.56-.16,1,.05,1.44.62,1.44,1.76,0-5.28,8.18-11.59,13.41-4.76,3.93-14.08,10-14.49,9.52-.57-.57-6.78-14.44-6.78-15,0-.26,2-1.81,4.35-3.47,9.52-6.41,15.78-13.35,20.23-22.25a67.72,67.72,0,0,0,3.68-8.85A97.06,97.06,0,0,0,202.92,152c0-2.38.16-2.74,1.19-3,3.78-.83,15.89-1,15.89-.26,0,.26-.67.52-1.55.52-1,0-1.56.25-1.56.77s.52.78,1.56.78C219.33,150.77,220,151,220,151.29Z"/><path class="e" d="M232.78,127c-.05.57-.36,1-.72,1-.57,0-.57-.21-.05-1a5.12,5.12,0,0,1,.77-1A3,3,0,0,1,232.78,127Z"/><path class="e" d="M234.75,127.17c-.67-.26-.83-.21-.57.21s.1.62-.16.62c-.67,0-.67-.16-.26-1.24s.47-1,1.25-.05C235.58,127.38,235.52,127.43,234.75,127.17Z"/><path class="e" d="M241.53,128.93a1.87,1.87,0,0,1-1.5.62c-.94,0-1.19-.31-1.3-1.55,0-.88.11-1.55.42-1.55a.5.5,0,0,1,.51.46c0,.26.52.62,1.19.73.94.2.88.2-.31.31-.82,0-1.34.26-1.19.51s.83.37,1.45.16S241.79,128.52,241.53,128.93Z"/><path class="e" d="M174.75,164.67l-.29-.08s0,0,0,0Z"/><path class="e" d="M246.55,138.71a9.08,9.08,0,0,1-2.33,0c-.67-.1-.16-.21,1.14-.21S247.17,138.61,246.55,138.71Z"/><path class="e" d="M246.91,144.77c0,.1-.47.31-1,.46s-1,.05-1-.21.46-.46,1-.46S246.91,144.66,246.91,144.77Z"/><path class="e" d="M249.19,136.28a1.44,1.44,0,0,1-1.45.21c-.78-.31-.78-.37,0-1q1.86-1.39.62.16c-.62.77-.62.82.31.46C249.44,135.81,249.6,135.86,249.19,136.28Z"/><path class="e" d="M249.34,142.28a1,1,0,0,1-1,.05c-.42-.15-.26-.31.31-.31S249.55,142.13,249.34,142.28Z"/><path class="e" d="M249.34,137.88c-.46.31-.72.83-.57,1.14s-.15.1-.77-.52c-1.3-1.34-1.4-1.91-.26-1.5a6,6,0,0,0,1.65.31C250.17,137.37,250.17,137.42,249.34,137.88Z"/><path class="e" d="M251.31,149.68c-.36.62-2.85-.77-2.85-1.55s.62-.52,1.61.67c.62.67,1,.83,1,.42s.15-.57.31-.37A.73.73,0,0,1,251.31,149.68Z"/><path class="e" d="M253.12,142.28c0,.1-.36.21-.78.21s-.77-.21-.77-.52.36-.36.77-.21S253.12,142.18,253.12,142.28Z"/><path class="e" d="M252.91,145.85c.47.73.73,1.3.52,1.3h-.67c-.26,0-.42-.42-.42-.94s-.52-.93-1.81-1c-1.76-.21-2.74-.93-2.28-1.76s1.35-.41,1,.41,0,.78,1.09.62a14.58,14.58,0,0,0,2.38-.67c.51-.2.88-.15.88.21s-.37.57-.78.57C252.14,144.56,252.19,144.71,252.91,145.85Z"/><path class="e" d="M51.56,151.29c-.16.31-1.14.51-2.12.51-2.38,0-1.87-.82.57-.93C51.09,150.82,51.71,151,51.56,151.29Zm-3.37,2.27c0,.11-.36.37-.82.52s-.62.11-.47-.21C47.21,153.36,48.19,153.15,48.19,153.56Z"/><path class="e" d="M218.45,150.77q-1.56,0-1.56-.78c0-.52.52-.77,1.56-.77.88,0,1.55-.26,1.55-.52,0-.78-12.11-.57-15.89.26-1,.26-1.19.62-1.19,3a97.06,97.06,0,0,1-2.27,16.14A67.72,67.72,0,0,1,197,177c-4.45,8.9-10.71,15.84-20.23,22.25-2.38,1.66-4.35,3.21-4.35,3.47,0,.57,6.21,14.44,6.78,15,.41.52,9.73-5.59,14.49-9.52,6.31-5.23,13.35-13.41,11.59-13.41-.57,0-.78-.41-.62-1.44.16-1.19.47-1.4,2.12-1.56,1.19-.1,1.86-.41,1.71-.77s-1-.52-2.43-.42-2.38-.1-2.64-.57c-.57-.88-.57-1.6,0-1.24a2.33,2.33,0,0,0,1.81-.21c1-.36,1.34-.31,1.4.16,0,.31.2.1.46-.57.52-1.19,1.76-1.55,2.33-.62.42.62,1.29.67,1.29.05,0-.41-1.5-1.09-2.84-1.29-.26-.05-.52-.57-.47-1.19s-.15-1-.41-.88c-.47.31-.52-.16-.62-2.75-.05-1.29.15-1.7.88-1.7a.86.86,0,0,0,.88-.78c0-.57-.57-.78-2-.78h-2v-2.58c0-2.54.47-3.31,1-1.87a3.54,3.54,0,0,0,1.5,1.4c1.14.62,1.14.57.41-.31s-.67-.93.16-.62.83.16.41-.57a8.19,8.19,0,0,0-1.55-1.86c-.57-.52-1-1.14-.83-1.35s-.26-.83-.78-1.45a3.85,3.85,0,0,1-1-1.6c0-.26-.31-.57-.62-.73s.21-.15,1.24-.15c1.86.05,2,.15,2,1.76a4.68,4.68,0,0,0,1.55,3.36c.88.93,1.45,1.24,1.24.73-.41-1.09.47-1.19,1.35-.11a2.37,2.37,0,0,0,1.76.73c1-.05.93-.11-1.19-.78-.52-.15-.42-.52.46-1.24l1.19-1h-1.86c-1.71,0-1.81-.11-1.66-1.45a20.26,20.26,0,0,0,.21-2.13c0-.51.57-.62,2.07-.41,2.38.31,3.62,1.24,3.31,2.48a1,1,0,0,0,.31,1.19,1.42,1.42,0,0,1,.57,1c0,.36-.26.2-.57-.31-.67-1.19-1.6-1.14-2.43.15-.67,1.14-.62,1.14,2.23,1.14s3,0,2.74-1.4c-.16-.72-.1-1.29.1-1.29.52,0,1.71-6.73,1.3-7.14-.16-.16-.26,0-.26.31s-.37.47-.78.31c-.88-.36-1.09-3.57-.26-4.09a1.05,1.05,0,0,0,.52-.83c0-.31-.21-.41-.52-.2s-.26-.37.05-1.3.78-1.55,1-1.55a.51.51,0,0,0,.46-.52c0-.31-.46-.51-1-.51s-1-.37-1-.78.52-.78,1.56-.78c.88,0,1.55-.26,1.55-.51S219.33,150.77,218.45,150.77Zm.83,6.21a4.3,4.3,0,0,0-.42,1.81c-.1,1,0,1.81.21,1.81s.41-.83.41-1.81A4.55,4.55,0,0,0,219.28,157Zm-4.71,15.52c-1.56.42-1.56.42.41.47,1,0,1.91-.21,1.91-.47C216.89,171.93,216.79,171.93,214.57,172.5Zm-2.18,9.32c-.77-.31-1.08-.78-.88-1.3s.16-.77,0-.77-.31.26-.31.57-.57.46-1.5.31c-2.53-.52-2.28.31.31,1C212.91,182.39,214.05,182.49,212.39,181.82Zm-1.91-4.35c-.47,1.24-.36,1.76.41,1.76.42,0,.73-.52.73-1.29C211.62,176.49,210.94,176.23,210.48,177.47Zm-.11-3.88c-.56,0-.72.15-.31.31a1.09,1.09,0,0,0,1-.05C211.25,173.69,210.94,173.54,210.37,173.59Zm-16.45,74.47c-.16,0-.52.46-.83,1s-.41,1-.31,1,.52-.47.83-1S194,248.06,193.92,248.06Zm-19.17-83.39-.3-.12s0,0,0,0Z"/><path class="e" d="M154.05,138.87l3.42,1.5a18.78,18.78,0,0,1,9.16,8.59c1.08,2.22,1.24,3.36,1.29,7.86,0,2.9.21,5.49.52,5.8.77.72,6.78,3.67,7.5,3.67.36,0,3.73-3,7.51-6.67,6.72-6.57,13-11.34,18.11-13.56,2.38-1,3.21-1.86,1.29-1.24-.57.2-1,.1-1-.21s1-.72,2.12-.88l2.17-.36-1.5-.62a3.79,3.79,0,0,0-2.22-.37c-.52.21-.63.06-.32-.41s1.35-.57,3.78-.36c2,.15,3.06,0,2.64-.21s-.31-.46.73-.46a3.33,3.33,0,0,1,2.17.72c.62.62.41.78-1.55,1.09-1.3.15-2.33.51-2.33.83,0,.62.36.56,3-.32a6.59,6.59,0,0,1,3-.46c1.29.52.88-.21-.67-1-1.35-.77-1.3-.77,2.07-.82,2.48,0,3.52.2,3.52.62s1.08.72,3.41.82c1.92.06,3.26-.1,3.11-.36-.42-.62.62-1,2.27-.83.83.06,1.3.42,1.24.88-.1,1,1.45.37,1.82-.67.25-.57,1.45-.83,5-.93,2.54-.05,4.76.26,4.92.1a21,21,0,0,0-6.37-.57c-3.62.11-6.57.52-6.57.37s-.62-.26-1.45-.16a9.5,9.5,0,0,1-3.1-.31c-1.4-.36-1.81-.26-2.33.57-.31.52-.78,1-1,1s-.26-.26-.11-.51-.83-.52-2.64-.52c-2.48,0-2.84-.11-2.17-.67a3.84,3.84,0,0,0,1.09-1.45c.2-.68,0-.78-.73-.62-.52.15-1,0-1-.31,0-.63,2-.78,3.41-.21.83.31.83.36-.1.77-.72.32-.57.37.57.16,1.45-.26,1.5-.21.57.52-.57.41-.78.77-.47.77.68,0,1.81-1.29,1.4-1.65-.16-.16.52-.93,1.5-1.66s1.76-1.65,1.76-2.07-.21-.67-.47-.52a.52.52,0,0,0-.15.73c.31.52-1.5,1.65-2,1.29-.15-.15-.21-.1-.05.11.31.41-.73,1.7-1.4,1.7-.31,0-.26-.36.11-.77s.46-.78.25-.78,0-.41.31-.88c.52-.62.21-.52-.93.26-1.7,1.24-4.29,1.55-4.29.52a5,5,0,0,1,1.14-1.92l1.19-1.34-1.19,1c-1.87,1.6-1.3.16.72-1.81,1.4-1.35,1.81-1.55,1.66-.78-.05.52.15,1.09.51,1.19s.52,0,.32-.57-.11-.82.2-.82.67-.42.88-.94c.26-.72.21-.77-.31-.25-1.14,1.13-1.71.72-.67-.52.52-.62-.26,0-1.76,1.45-2.48,2.38-3.78,2.84-1.81.67.83-.93.83-.93,0-.62-1.61.62-.88-.57,2.22-3.67,1.71-1.66,3.26-2.85,3.47-2.64s-.31,1-1.14,1.81a23.75,23.75,0,0,0-2.59,2.69c-.56.67.16.15,1.56-1.14,2.38-2.17,2.74-2.33,5.07-2.23,1.45.11,2.33,0,2.17-.36s-.88-.31-1.6-.15a5,5,0,0,1-2.12,0c-.78-.31-.78-.42-.16-.83s.47-.52-.52-.52-2.17.88-4.14,2.85c-1.5,1.55-2.89,2.69-3,2.53s1.14-1.65,2.85-3.41,2.48-2.8,1.81-2.33a3.15,3.15,0,0,1-2.07.52c-.62-.21-.68-.16-.11.26s.37.82-.82,2.17l-1.5,1.65v-6.31l-.06-6.26,1.45,1.4c1.09,1,1.35,1.55.88,1.81s-.46.57-.26.83c.83.77,1.35-1.09.57-2-1-1.09-.93-1.55.16-1.14.57.21.31-.36-.78-1.45-2.12-2.33-2.17-3.21,0-1.19l1.66,1.5-1.76-2.33L214,110.15l1.91,1.76c1,1,1.92,1.65,1.92,1.5a4.68,4.68,0,0,1,.36-1.25c.26-.72.16-.82-.67-.57s-.78.21.2-.51,1.35-2,1.92-5.28c1.55-9,1.5-13-.21-10-.36.72-.77.83-1.91.41a2.93,2.93,0,0,1-1.76-1.55c-.16-.57-.62-1-1-1s-.77-.57-.88-1.5c-.1-1.82-.67-2.49-.67-.83,0,1.14,0,1.14-1,.31-1.19-1.09-2.12-.73-2.12.77s-1.4,2.8-2.33,2-1-2,.1-2.17,1.45-3.52.36-3.52a.57.57,0,0,0-.62.62c.11.36-.26.62-.77.62-.68,0-.88.31-.88,1.81v1.87l-.78-1.45a2.48,2.48,0,0,1-.26-2.49c.62-1.08-.1-1.34-.88-.36A11.08,11.08,0,0,0,202.85,92c-1,3.11-5,10.92-7.55,14.8-4,6-11.08,11.8-18.53,15.22a95.34,95.34,0,0,1-17,5.38c-4.56,1-5.07,1.6-5.44,6.88Z"/><path class="e" d="M191.56,99.69c-.52.83-8.95,12.37-9.52,13-.26.26-2.8-.62-6.11-2.17-8.61-4.05-16.61-6.1-24.65-6.14h-.34c-8.05,0-16.05,2.09-24.66,6.14-3.31,1.55-5.84,2.43-6.1,2.17-.57-.62-9-12.16-9.53-13s11.18-6.57,17.86-8.9A66.67,66.67,0,0,1,150.94,87h.34a66.71,66.71,0,0,1,22.43,3.81C180.38,93.12,192.08,98.92,191.56,99.69Z"/><path class="e" d="M211.22,114.62a9.08,9.08,0,0,1-2.33,0c-.68-.11-.16-.21,1.14-.21S211.84,114.51,211.22,114.62Z"/><path class="e" d="M211.58,120.67c0,.1-.47.31-1,.47s-1,0-1-.21.46-.47,1-.47S211.58,120.57,211.58,120.67Z"/><path class="e" d="M213.86,112.18a1.42,1.42,0,0,1-1.45.21c-.78-.31-.78-.36.05-1q1.86-1.39.62.15c-.62.78-.62.83.31.47C214.11,111.72,214.27,111.77,213.86,112.18Z"/><path class="e" d="M214,118.19a1.07,1.07,0,0,1-1,0c-.42-.16-.26-.31.31-.31S214.22,118,214,118.19Z"/><path class="e" d="M214,113.79c-.47.31-.72.83-.57,1.14s-.15.1-.78-.52c-1.29-1.35-1.39-1.92-.25-1.5a6.4,6.4,0,0,0,1.65.31C214.84,113.27,214.84,113.32,214,113.79Z"/><path class="e" d="M216,125.59c-.37.62-2.85-.78-2.85-1.56s.62-.51,1.6.68c.63.67,1,.83,1,.41s.15-.57.31-.36A.73.73,0,0,1,216,125.59Z"/><path class="e" d="M217.79,118.19c0,.1-.36.2-.78.2s-.77-.2-.77-.51.36-.37.77-.21S217.79,118.08,217.79,118.19Z"/><path class="e" d="M217.58,121.76c.47.72.73,1.29.52,1.29h-.67c-.26,0-.42-.41-.42-.93s-.52-.93-1.81-1c-1.76-.21-2.74-.94-2.28-1.76s1.35-.42,1,.41c-.26.67-.05.78,1.09.62a14.58,14.58,0,0,0,2.38-.67c.51-.21.88-.16.88.21s-.37.56-.78.56C216.8,120.46,216.86,120.62,217.58,121.76Z"/><path class="e" d="M232.77,130.05a9.08,9.08,0,0,0,2.33,0c.67-.1.15-.21-1.14-.21S232.15,130,232.77,130.05Z"/><path class="e" d="M232.41,136.1c0,.11.46.31,1,.47s1,.05,1-.21-.47-.46-1-.46S232.41,136,232.41,136.1Z"/><path class="e" d="M230.13,127.62a1.41,1.41,0,0,0,1.45.2c.78-.31.78-.36-.05-1q-1.86-1.4-.62.15c.62.78.62.83-.31.47C229.87,127.15,229.72,127.2,230.13,127.62Z"/><path class="e" d="M230,133.62a1.07,1.07,0,0,0,1,0c.41-.15.26-.31-.31-.31S229.77,133.46,230,133.62Z"/><path class="e" d="M230,129.22c.47.31.73.83.57,1.14s.16.1.78-.52c1.29-1.34,1.4-1.91.26-1.5a6.07,6.07,0,0,1-1.66.31C229.15,128.7,229.15,128.75,230,129.22Z"/><path class="e" d="M228,141c.36.62,2.84-1.29,2.84-2.07s-.62,0-1.6,1.19c-.62.67-1,.83-1,.41s-.16-.57-.31-.36A.69.69,0,0,0,228,141Z"/><path class="e" d="M226.2,133.62c0,.1.36.21.77.21s.78-.21.78-.52-.36-.36-.78-.21S226.2,133.52,226.2,133.62Z"/><path class="e" d="M226.4,137.19c-.46.72-.72,1.29-.51,1.29h.67c.26,0,.41-.41.41-.93s.52-.93,1.81-1c1.76-.21,2.75-.93,2.28-1.76s-1.34-.42-1,.41c.26.67.05.78-1.09.62a14.3,14.3,0,0,1-2.38-.67c-.52-.21-.88-.16-.88.21s.36.57.78.57C227.18,135.9,227.13,136.05,226.4,137.19Z"/></svg>